HIERARCHY
ROOT Hips
{
	OFFSET 0.000000 83.214638 0.000000
	CHANNELS 6 Xposition Yposition Zposition Xrotation Yrotation Zrotation
	JOINT Pelvis
	{
		OFFSET 0.000000 0.000000 0.000000
		CHANNELS 3 Xrotation Yrotation Zrotation
		JOINT LeftUpLeg
		{
			OFFSET 8.479700 -4.795502 -0.379100
			CHANNELS 3 Xrotation Yrotation Zrotation
			JOINT LeftLeg
			{
				OFFSET 0.024144 -32.555107 0.112900
				CHANNELS 3 Xrotation Yrotation Zrotation
				JOINT LeftFoot
				{
					OFFSET -0.024144 -32.638630 -3.012600
					CHANNELS 3 Xrotation Yrotation Zrotation
					JOINT LeftToeBase
					{
						OFFSET 0.970200 -13.225400 11.864200
						CHANNELS 3 Xrotation Yrotation Zrotation
						End Site
						{
							OFFSET 0.000000 12.319262 0.000000
						}
					}
					JOINT LFootTongue
					{
						OFFSET 1.142400 -1.059800 6.665200
						CHANNELS 3 Xrotation Yrotation Zrotation
						End Site
						{
							OFFSET 0.000000 12.319262 0.000000
						}
					}
				}
				JOINT LeftPantLeg
				{
					OFFSET 0.918482 -16.533964 -2.284700
					CHANNELS 3 Xrotation Yrotation Zrotation
					End Site
					{
						OFFSET 0.350399 24.744368 0.000000
					}
				}
			}
		}
		JOINT RightUpLeg
		{
			OFFSET -8.479700 -4.795502 -0.379100
			CHANNELS 3 Xrotation Yrotation Zrotation
			JOINT RightLeg
			{
				OFFSET -0.023144 -32.555092 0.112900
				CHANNELS 3 Xrotation Yrotation Zrotation
				JOINT RightFoot
				{
					OFFSET 0.023144 -32.638641 -3.012700
					CHANNELS 3 Xrotation Yrotation Zrotation
					JOINT RightToeBase
					{
						OFFSET -0.970200 -13.225400 11.864200
						CHANNELS 3 Xrotation Yrotation Zrotation
						End Site
						{
							OFFSET 0.000000 12.319244 0.000000
						}
					}
					JOINT RFootTongue
					{
						OFFSET -1.142200 -1.059800 6.665200
						CHANNELS 3 Xrotation Yrotation Zrotation
						End Site
						{
							OFFSET 0.000000 12.319243 0.000000
						}
					}
				}
				JOINT RightPantLeg
				{
					OFFSET -0.919482 -16.533978 -2.284800
					CHANNELS 3 Xrotation Yrotation Zrotation
					End Site
					{
						OFFSET -0.350400 24.744419 0.000000
					}
				}
			}
		}
	}
	JOINT Spine
	{
		OFFSET 0.000000 7.722000 1.166200
		CHANNELS 3 Xrotation Yrotation Zrotation
		JOINT Spine1
		{
			OFFSET 0.000000 12.024101 0.248800
			CHANNELS 3 Xrotation Yrotation Zrotation
			JOINT Spine2
			{
				OFFSET 0.000000 11.502998 -0.491200
				CHANNELS 3 Xrotation Yrotation Zrotation
				JOINT Neck
				{
					OFFSET 0.000000 18.430702 -3.123100
					CHANNELS 3 Xrotation Yrotation Zrotation
					JOINT Head
					{
						OFFSET 0.000000 9.051102 1.034000
						CHANNELS 3 Xrotation Yrotation Zrotation
						JOINT HairB
						{
							OFFSET 0.208400 24.786102 24.822300
							CHANNELS 3 Xrotation Yrotation Zrotation
							End Site
							{
								OFFSET 0.000000 32.263779 0.000000
							}
						}
						JOINT HairA
						{
							OFFSET -7.081100 24.428299 23.196600
							CHANNELS 3 Xrotation Yrotation Zrotation
							End Site
							{
								OFFSET 0.000000 32.263779 0.000000
							}
						}
						JOINT Hat
						{
							OFFSET 16.728800 15.048294 -15.439601
							CHANNELS 3 Xrotation Yrotation Zrotation
							End Site
							{
								OFFSET 0.000000 32.263779 0.000000
							}
						}
					}
				}
				JOINT LeftShoulder
				{
					OFFSET 6.197800 13.665199 -4.064700
					CHANNELS 3 Xrotation Yrotation Zrotation
					JOINT LeftArm
					{
						OFFSET 7.778100 -0.187103 -1.709300
						CHANNELS 3 Xrotation Yrotation Zrotation
						JOINT LeftForeArm
						{
							OFFSET 22.049376 0.000000 0.000000
							CHANNELS 3 Xrotation Yrotation Zrotation
							JOINT LeftHand
							{
								OFFSET 23.009392 0.000000 0.000000
								CHANNELS 3 Xrotation Yrotation Zrotation
								JOINT LeftHandThumb1
								{
									OFFSET 3.507191 -2.063065 3.133727
									CHANNELS 3 Xrotation Yrotation Zrotation
									JOINT LeftHandThumb2
									{
										OFFSET 3.101337 -1.790558 1.790558
										CHANNELS 3 Xrotation Yrotation Zrotation
										JOINT LeftHandThumb3
										{
											OFFSET 3.058640 -1.765907 1.765906
											CHANNELS 3 Xrotation Yrotation Zrotation
											End Site
											{
												OFFSET -0.415260 3.926476 -0.049563
											}
										}
									}
								}
								JOINT LeftHandIndex1
								{
									OFFSET 11.334419 -0.901459 3.706815
									CHANNELS 3 Xrotation Yrotation Zrotation
									JOINT LeftHandIndex2
									{
										OFFSET 3.283112 0.000000 0.000000
										CHANNELS 3 Xrotation Yrotation Zrotation
										JOINT LeftHandIndex3
										{
											OFFSET 3.323853 0.000000 0.000000
											CHANNELS 3 Xrotation Yrotation Zrotation
											End Site
											{
												OFFSET -1.135597 3.097809 0.402452
											}
										}
									}
								}
								JOINT LeftHandMiddle1
								{
									OFFSET 11.335861 0.000000 0.000000
									CHANNELS 3 Xrotation Yrotation Zrotation
									JOINT LeftHandMiddle2
									{
										OFFSET 3.410492 0.000000 0.000000
										CHANNELS 3 Xrotation Yrotation Zrotation
										JOINT LeftHandMiddle3
										{
											OFFSET 3.312172 0.000000 0.000000
											CHANNELS 3 Xrotation Yrotation Zrotation
											End Site
											{
												OFFSET -1.150200 3.080154 0.400270
											}
										}
									}
								}
								JOINT LeftHandRing1
								{
									OFFSET 11.514786 -0.013176 -3.003090
									CHANNELS 3 Xrotation Yrotation Zrotation
									JOINT LeftHandRing2
									{
										OFFSET 3.053307 0.000000 0.000000
										CHANNELS 3 Xrotation Yrotation Zrotation
										JOINT LeftHandRing3
										{
											OFFSET 3.295807 0.000000 0.000000
											CHANNELS 3 Xrotation Yrotation Zrotation
											End Site
											{
												OFFSET -1.281006 3.013344 0.375733
											}
										}
									}
								}
								JOINT LeftHandPinky1
								{
									OFFSET 10.518692 -0.960396 -5.730441
									CHANNELS 3 Xrotation Yrotation Zrotation
									JOINT LeftHandPinky2
									{
										OFFSET 2.861649 0.000000 0.000000
										CHANNELS 3 Xrotation Yrotation Zrotation
										JOINT LeftHandPinky3
										{
											OFFSET 2.863380 0.000000 0.000000
											CHANNELS 3 Xrotation Yrotation Zrotation
											End Site
											{
												OFFSET -0.843597 2.711159 0.369971
											}
										}
									}
								}
							}
							JOINT LSleeve
							{
								OFFSET 6.676277 -0.344902 -1.011730
								CHANNELS 3 Xrotation Yrotation Zrotation
								End Site
								{
									OFFSET 0.000000 14.885353 0.000000
								}
							}
						}
					}
				}
				JOINT RightShoulder
				{
					OFFSET -6.197800 13.665199 -4.064700
					CHANNELS 3 Xrotation Yrotation Zrotation
					JOINT RightArm
					{
						OFFSET -7.778100 -0.187103 -1.709300
						CHANNELS 3 Xrotation Yrotation Zrotation
						JOINT RightForeArm
						{
							OFFSET -22.049376 0.000000 0.000000
							CHANNELS 3 Xrotation Yrotation Zrotation
							JOINT RightHand
							{
								OFFSET -23.009392 0.000000 0.000000
								CHANNELS 3 Xrotation Yrotation Zrotation
								JOINT RightHandThumb1
								{
									OFFSET -3.507191 -2.063065 3.133727
									CHANNELS 3 Xrotation Yrotation Zrotation
									JOINT RightHandThumb2
									{
										OFFSET -3.101337 -1.790558 1.790558
										CHANNELS 3 Xrotation Yrotation Zrotation
										JOINT RightHandThumb3
										{
											OFFSET -3.058640 -1.765907 1.765906
											CHANNELS 3 Xrotation Yrotation Zrotation
											End Site
											{
												OFFSET 0.415260 3.926476 -0.049563
											}
										}
									}
								}
								JOINT RightHandIndex1
								{
									OFFSET -11.334419 -0.901459 3.706815
									CHANNELS 3 Xrotation Yrotation Zrotation
									JOINT RightHandIndex2
									{
										OFFSET -3.283112 0.000000 0.000000
										CHANNELS 3 Xrotation Yrotation Zrotation
										JOINT RightHandIndex3
										{
											OFFSET -3.323853 0.000000 0.000000
											CHANNELS 3 Xrotation Yrotation Zrotation
											End Site
											{
												OFFSET 1.135597 3.097809 0.402452
											}
										}
									}
								}
								JOINT RightHandMiddle1
								{
									OFFSET -11.335861 0.000000 0.000000
									CHANNELS 3 Xrotation Yrotation Zrotation
									JOINT RightHandMiddle2
									{
										OFFSET -3.410492 0.000000 0.000000
										CHANNELS 3 Xrotation Yrotation Zrotation
										JOINT RightHandMiddle3
										{
											OFFSET -3.312172 0.000000 0.000000
											CHANNELS 3 Xrotation Yrotation Zrotation
											End Site
											{
												OFFSET 1.150200 3.080154 0.400270
											}
										}
									}
								}
								JOINT RightHandRing1
								{
									OFFSET -11.514786 -0.013176 -3.003090
									CHANNELS 3 Xrotation Yrotation Zrotation
									JOINT RightHandRing2
									{
										OFFSET -3.053307 0.000000 0.000000
										CHANNELS 3 Xrotation Yrotation Zrotation
										JOINT RightHandRing3
										{
											OFFSET -3.295807 0.000000 0.000000
											CHANNELS 3 Xrotation Yrotation Zrotation
											End Site
											{
												OFFSET 1.281006 3.013344 0.375733
											}
										}
									}
								}
								JOINT RightHandPinky1
								{
									OFFSET -10.518692 -0.960396 -5.730441
									CHANNELS 3 Xrotation Yrotation Zrotation
									JOINT RightHandPinky2
									{
										OFFSET -2.861649 0.000000 0.000000
										CHANNELS 3 Xrotation Yrotation Zrotation
										JOINT RightHandPinky3
										{
											OFFSET -2.863380 0.000000 0.000000
											CHANNELS 3 Xrotation Yrotation Zrotation
											End Site
											{
												OFFSET 0.843597 2.711159 0.369971
											}
										}
									}
								}
							}
							JOINT RSleeve
							{
								OFFSET -6.676277 -0.344902 -1.011730
								CHANNELS 3 Xrotation Yrotation Zrotation
								End Site
								{
									OFFSET 0.000000 14.885353 0.000000
								}
							}
						}
					}
				}
				JOINT Backpack
				{
					OFFSET 0.000000 -2.471497 36.677502
					CHANNELS 3 Xrotation Yrotation Zrotation
					End Site
					{
						OFFSET 0.000000 20.427315 0.000000
					}
				}
				JOINT Hood
				{
					OFFSET 0.000000 18.754097 -10.431000
					CHANNELS 3 Xrotation Yrotation Zrotation
					JOINT Hood1
					{
						OFFSET 0.000000 -5.011002 -7.685901
						CHANNELS 3 Xrotation Yrotation Zrotation
						End Site
						{
							OFFSET 0.000000 9.175140 0.000000
						}
					}
				}
				JOINT LHoodieString
				{
					OFFSET 5.250500 16.397697 3.089900
					CHANNELS 3 Xrotation Yrotation Zrotation
					JOINT LHoodieString1
					{
						OFFSET 0.257700 -6.364304 3.694600
						CHANNELS 3 Xrotation Yrotation Zrotation
						JOINT LHoodieString2
						{
							OFFSET 0.000000 -9.643799 2.679100
							CHANNELS 3 Xrotation Yrotation Zrotation
							End Site
							{
								OFFSET 0.000000 10.009018 0.000000
							}
						}
					}
				}
				JOINT RHoodieString
				{
					OFFSET -5.250500 16.397697 3.089900
					CHANNELS 3 Xrotation Yrotation Zrotation
					JOINT RHoodieString1
					{
						OFFSET -0.257700 -6.364304 3.694600
						CHANNELS 3 Xrotation Yrotation Zrotation
						JOINT RHoodieString2
						{
							OFFSET 0.000000 -9.643799 2.679100
							CHANNELS 3 Xrotation Yrotation Zrotation
							End Site
							{
								OFFSET 0.000000 10.009018 0.000000
							}
						}
					}
				}
			}
			JOINT LBackpack_Strap
			{
				OFFSET 15.223200 -7.719803 -6.610900
				CHANNELS 3 Xrotation Yrotation Zrotation
				End Site
				{
					OFFSET 0.000000 16.040596 0.000000
				}
			}
			JOINT RBackpack_Strap
			{
				OFFSET -15.223000 -7.719803 -6.610900
				CHANNELS 3 Xrotation Yrotation Zrotation
				End Site
				{
					OFFSET 0.000000 16.040596 0.000000
				}
			}
		}
	}
	JOINT BoyFacialAnim_Joint
	{
		OFFSET 1.000000 -82.208099 -1.550900
		CHANNELS 3 Xrotation Yrotation Zrotation
		End Site
		{
			OFFSET 0.000000 30.012791 0.000000
		}
	}
}
MOTION
Frames: 5
Frame Time: 0.016667
0.670655 44.660530 -1.988836 10.625589 2.768360 -2.015086 0.000000 0.000000 0.000000 -118.117590 -9.265760 12.080302 110.360523 3.480559 -1.873138 28.984178 14.005481 -3.717291 0.000000 0.000000 -0.000001 0.000000 0.000000 -0.000001 -0.000000 0.000002 0.000000 -108.503422 8.996413 -15.851001 94.034459 2.624879 2.472232 9.747886 -15.452096 6.409251 -0.000000 0.000001 -0.000000 -0.000000 0.000001 -0.000000 0.000000 -0.000000 -0.000000 7.701100 0.631151 0.779288 15.404648 -1.645676 0.429647 15.404650 -1.645675 0.429646 8.239404 0.665906 -4.359148 -24.817255 2.145861 0.283907 -0.000002 0.000000 -0.000000 -0.000002 0.000000 -0.000000 -0.000002 0.000000 -0.000000 0.976193 -12.023675 -2.955274 -36.800960 -39.961927 -65.817144 4.442542 -70.713823 7.743226 62.907750 -19.951442 -40.077651 36.402712 -18.599321 13.686065 12.341076 31.733346 -8.576605 0.000000 -0.000000 0.000001 -9.266083 5.666146 -14.922889 -0.227256 0.348447 -49.708607 -0.000000 -0.000003 -0.000006 -0.241036 7.727687 -68.922278 -2.102193 -3.022784 -77.295031 -0.000000 -0.000001 -0.000000 -2.822142 1.978542 -79.731694 -3.896993 -3.563528 -63.537924 -0.000000 0.000003 -0.000002 -6.516216 2.989312 -86.727071 -3.420445 -6.654739 -59.290803 0.000000 -0.000002 0.000003 0.000000 -0.000001 0.000003 0.677111 -0.900610 14.314971 -11.869257 21.594693 37.467283 -58.174497 97.366266 59.451285 37.689131 0.307458 -16.860570 -32.522642 2.093715 22.573581 12.275540 -24.995506 3.938962 0.000000 -0.000003 -0.000004 -7.941989 -0.935621 47.401257 1.329798 -3.288411 17.785372 -0.000001 -0.000000 0.000004 -4.807897 -3.383809 42.419023 0.279762 0.044545 15.586370 0.000001 -0.000004 -0.000001 -4.479338 -0.809742 36.018272 -0.148523 0.083576 18.671304 0.000001 0.000002 0.000004 -4.614004 1.072274 36.102932 -0.106051 0.906814 9.601550 0.000001 0.000004 -0.000001 0.000002 -0.000001 -0.000001 0.000003 0.000000 -0.000000 0.000003 0.000000 -0.000000 0.000003 0.000000 -0.000000 0.000003 0.000000 -0.000000 0.000003 0.000000 -0.000000 0.000003 0.000000 0.000000 0.000003 0.000000 -0.000000 0.000003 0.000000 -0.000000 0.000003 0.000000 0.000000 0.000001 0.000000 -0.000000 0.000001 0.000000 -0.000000 0.000000 0.000000 0.000000 
0.686351 44.631317 -1.981184 10.483376 2.616280 -1.870148 -0.000000 0.000000 0.000000 -117.957148 -9.213374 12.330492 110.462286 3.453569 -1.874731 28.912300 13.957474 -3.780491 0.000000 -0.000002 0.000000 0.000000 -0.000002 0.000000 0.000000 0.000000 0.000000 -108.486401 9.045624 -15.772085 94.069095 2.614717 2.471253 9.775748 -15.335482 6.323599 -0.000000 -0.000000 -0.000000 -0.000000 -0.000000 -0.000000 0.000001 0.000002 0.000001 7.682800 0.569148 0.733138 15.366527 -1.762480 0.338670 15.366527 -1.762480 0.338669 8.166161 0.676698 -4.388659 -25.103360 2.285452 0.159047 -0.000000 0.000000 0.000000 -0.000000 0.000000 0.000000 -0.000000 0.000000 0.000000 1.001967 -12.561888 -3.413037 -36.575858 -37.627936 -65.172388 5.823873 -71.156310 8.893716 60.199300 -19.790808 -39.067388 36.402709 -18.599322 13.686068 12.341075 31.733346 -8.576599 -0.000000 -0.000001 -0.000001 -9.266083 5.666144 -14.922891 -0.227254 0.348444 -49.708607 0.000001 -0.000001 -0.000004 -0.241037 7.727687 -68.922278 -2.102191 -3.022782 -77.295031 0.000001 -0.000003 0.000001 -2.822143 1.978539 -79.731694 -3.896987 -3.563535 -63.537917 -0.000001 0.000002 -0.000002 -6.516216 2.989311 -86.727078 -3.420446 -6.654739 -59.290803 -0.000004 -0.000002 0.000001 0.000000 0.000001 0.000007 0.682746 -1.024349 14.346577 -11.911685 22.192712 37.618974 -61.262460 97.001937 62.569061 37.754912 0.492648 -16.995268 -32.657812 3.143890 21.676463 12.370572 -25.155314 3.994094 0.000000 0.000002 -0.000005 -7.877103 -0.922433 47.155257 1.328738 -3.300925 17.611991 -0.000002 -0.000004 0.000001 -4.956221 -3.343537 42.186011 0.260723 0.109795 16.298978 -0.000001 0.000003 -0.000003 -4.385562 -0.909650 35.961718 -0.147978 0.081907 18.628859 -0.000000 -0.000000 0.000002 -4.477673 0.995641 35.967909 -0.106313 0.894862 9.497984 0.000000 -0.000002 -0.000000 0.000003 -0.000001 -0.000001 -0.000001 -0.000000 -0.000000 -0.000001 -0.000000 -0.000000 -0.000001 -0.000000 -0.000000 -0.000001 -0.000000 -0.000000 -0.000001 -0.000000 -0.000000 0.000002 0.000000 0.000000 -0.000001 -0.000000 -0.000000 -0.000001 -0.000000 -0.000000 0.000002 0.000000 0.000000 0.000000 0.000000 -0.000000 0.000000 0.000000 -0.000000 -0.000000 0.000000 0.000000 
0.706293 44.601944 -1.970169 10.338538 2.462023 -1.694099 -0.000001 -0.000000 -0.000000 -117.781039 -9.161402 12.567795 110.552356 3.413901 -1.877596 28.903551 13.893161 -3.914573 -0.000001 -0.000001 -0.000000 -0.000001 -0.000001 -0.000000 -0.000000 0.000002 0.000000 -108.479612 9.105632 -15.719964 94.110205 2.604017 2.470204 9.797336 -15.182233 6.206850 -0.000000 -0.000001 -0.000000 -0.000000 -0.000001 -0.000000 0.000000 -0.000000 0.000001 7.648787 0.504982 0.680389 15.296714 -1.885093 0.233128 15.296704 -1.885093 0.233128 7.999430 0.691052 -4.368057 -25.501748 2.443269 0.028523 0.000000 0.000000 -0.000000 0.000000 0.000000 -0.000000 0.000000 0.000000 -0.000000 1.011234 -13.059778 -3.950570 -36.322219 -35.540650 -64.515836 6.759400 -71.267744 9.598101 57.857699 -18.989703 -37.194635 36.402712 -18.599319 13.686072 12.341079 31.733346 -8.576599 0.000000 0.000001 0.000001 -9.266084 5.666147 -14.922896 -0.227253 0.348442 -49.708600 0.000001 -0.000001 -0.000005 -0.241037 7.727685 -68.922285 -2.102196 -3.022785 -77.295031 -0.000000 -0.000001 0.000002 -2.822141 1.978539 -79.731694 -3.896989 -3.563536 -63.537924 -0.000003 0.000004 -0.000002 -6.516217 2.989310 -86.727078 -3.420445 -6.654742 -59.290803 -0.000003 0.000000 -0.000004 0.000000 0.000002 0.000004 0.693892 -1.208658 14.526371 -11.869329 22.927535 37.575661 -65.426184 96.641890 66.757818 37.696941 0.668807 -17.157411 -32.737134 4.173143 20.683778 12.452674 -25.293164 4.041908 -0.000001 0.000001 0.000000 -7.814045 -0.915071 47.015037 1.330825 -3.313596 17.474450 0.000001 -0.000001 0.000005 -5.123478 -3.294661 42.046559 0.240247 0.177499 17.042599 0.000000 0.000003 -0.000001 -4.317818 -0.981793 35.918326 -0.148338 0.082997 18.656149 -0.000001 -0.000002 0.000000 -4.395811 0.947466 35.902702 -0.106214 0.899014 9.533844 -0.000001 -0.000001 0.000002 -0.000000 -0.000002 -0.000000 0.000001 -0.000000 -0.000000 0.000001 -0.000000 -0.000000 0.000001 -0.000000 -0.000000 0.000001 -0.000000 -0.000000 0.000001 -0.000000 -0.000000 0.000001 -0.000000 -0.000000 0.000001 -0.000000 -0.000000 0.000001 -0.000000 -0.000000 0.000001 -0.000000 -0.000000 0.000005 0.000000 -0.000000 0.000005 0.000000 -0.000000 -0.000001 -0.000000 -0.000000 
0.725944 44.573334 -1.957794 10.192041 2.314574 -1.500804 0.000001 0.000000 -0.000000 -117.596979 -9.109491 12.795371 110.623759 3.366695 -1.881334 28.960982 13.815874 -4.091435 -0.000000 -0.000000 -0.000001 -0.000000 -0.000000 -0.000001 0.000000 -0.000003 0.000000 -108.476900 9.172640 -15.687655 94.157074 2.593969 2.469183 9.812903 -15.011923 6.071748 0.000000 -0.000000 -0.000000 0.000000 -0.000000 -0.000000 0.000000 0.000001 0.000000 7.604011 0.442096 0.626799 15.205224 -2.007434 0.124161 15.205210 -2.007434 0.124161 7.740312 0.705020 -4.295243 -26.023053 2.585035 -0.082805 -0.000000 -0.000000 0.000000 -0.000000 -0.000000 0.000000 -0.000000 -0.000000 0.000000 1.009443 -13.518794 -4.521481 -36.164612 -33.601006 -63.941198 7.233320 -71.048980 9.837454 55.566003 -17.888771 -34.857498 36.402709 -18.599327 13.686066 12.341079 31.733346 -8.576603 -0.000001 0.000001 0.000001 -9.266091 5.666146 -14.922891 -0.227253 0.348440 -49.708600 -0.000000 0.000001 -0.000002 -0.241039 7.727686 -68.922278 -2.102189 -3.022782 -77.295024 -0.000002 0.000004 -0.000003 -2.822145 1.978544 -79.731694 -3.896986 -3.563535 -63.537924 -0.000001 0.000002 0.000002 -6.516219 2.989311 -86.727071 -3.420448 -6.654741 -59.290803 -0.000002 -0.000001 0.000001 0.000000 -0.000000 -0.000000 0.707931 -1.411167 14.780307 -11.778945 23.702655 37.433518 -70.430076 96.324348 71.783840 37.575381 0.839808 -17.319401 -32.786779 5.233649 19.619023 12.509670 -25.388689 4.075176 -0.000001 0.000002 -0.000005 -7.771341 -0.903990 46.877169 1.335438 -3.326333 17.363789 -0.000001 0.000003 0.000002 -5.298960 -3.242190 41.912640 0.218276 0.247536 17.816064 -0.000002 0.000002 0.000000 -4.267723 -1.033218 35.871761 -0.148922 0.084727 18.698693 -0.000002 -0.000001 0.000004 -4.351876 0.922306 35.858739 -0.106027 0.907775 9.609898 0.000001 -0.000004 -0.000000 0.000001 0.000003 0.000001 0.000001 -0.000000 -0.000000 0.000001 -0.000000 -0.000000 0.000001 -0.000000 -0.000000 0.000001 -0.000000 -0.000000 0.000001 -0.000000 -0.000000 -0.000001 0.000000 0.000000 0.000001 -0.000000 -0.000000 0.000001 -0.000000 -0.000000 -0.000001 0.000000 0.000000 0.000003 0.000000 0.000000 0.000003 0.000000 0.000000 0.000001 0.000000 -0.000000 
0.741337 44.546577 -1.946195 10.049175 2.184556 -1.299270 0.000000 0.000000 0.000000 -117.415815 -9.058927 13.008599 110.664070 3.315444 -1.885707 29.106585 13.727581 -4.298054 -0.000002 0.000001 -0.000001 -0.000002 0.000001 -0.000000 -0.000000 0.000000 -0.000000 -108.477693 9.244180 -15.674173 94.208198 2.585574 2.468277 9.822117 -14.838330 5.925222 -0.000000 -0.000000 -0.000000 -0.000000 -0.000000 -0.000000 -0.000000 -0.000001 -0.000001 7.551288 0.384173 0.576570 15.097800 -2.123753 0.019786 15.097802 -2.123753 0.019786 7.368664 0.713401 -4.154431 -26.703285 2.674358 -0.155286 0.000000 -0.000000 -0.000000 0.000000 -0.000000 -0.000000 0.000000 -0.000000 -0.000000 0.996959 -13.922960 -5.092061 -36.139214 -31.783619 -63.496116 7.229939 -70.574460 9.604238 53.126004 -16.705550 -32.174692 36.402702 -18.599319 13.686072 12.341079 31.733342 -8.576604 0.000001 -0.000002 0.000000 -9.266088 5.666144 -14.922891 -0.227258 0.348449 -49.708604 -0.000003 0.000000 -0.000005 -0.241039 7.727676 -68.922278 -2.102194 -3.022784 -77.295031 -0.000003 0.000001 -0.000003 -2.822144 1.978535 -79.731694 -3.896991 -3.563532 -63.537917 0.000003 0.000002 -0.000000 -6.516218 2.989303 -86.727071 -3.420446 -6.654739 -59.290803 -0.000000 -0.000000 -0.000004 -0.000000 0.000004 -0.000000 0.722740 -1.588367 15.063994 -11.663976 24.422448 37.253136 -75.874236 96.087231 77.245150 37.427067 1.005713 -17.455108 -32.828812 6.398084 18.475057 12.517513 -25.401837 4.079775 -0.000002 0.000001 -0.000002 -7.779661 -0.877683 46.633308 1.344885 -3.339198 17.304785 0.000000 0.000002 0.000005 -5.479522 -3.186220 41.696782 0.194541 0.320624 18.628135 0.000001 0.000004 -0.000003 -4.233116 -1.061293 35.791250 -0.149012 0.085034 18.703857 -0.000002 -0.000001 0.000000 -4.343363 0.924332 35.786640 -0.105896 0.914524 9.668232 -0.000001 -0.000003 -0.000004 -0.000000 0.000001 -0.000001 -0.000004 0.000000 -0.000000 -0.000004 0.000000 -0.000000 -0.000004 0.000000 -0.000000 -0.000004 0.000000 -0.000000 -0.000004 0.000000 -0.000000 -0.000003 0.000000 -0.000000 -0.000004 0.000000 -0.000000 -0.000004 0.000000 -0.000000 -0.000003 0.000000 -0.000000 0.000001 0.000000 0.000000 0.000001 0.000000 0.000000 0.000000 0.000000 0.000000 
